<svg width="32" height="32" viewBox="0 0 32 32" fill="none" xmlns="http://www.w3.org/2000/svg">
<path fill-rule="evenodd" clip-rule="evenodd" d="M16.0002 3C8.82691 3 3.00024 8.82667 3.00024 16C3.00024 18.1867 3.56026 20.3333 4.60026 22.2533L2.54688 29.4533L9.74691 27.4C11.6669 28.4533 13.8136 29 16.0002 29C23.1736 29 29.0002 23.1733 29.0002 16C29.0002 8.82667 23.1736 3 16.0002 3ZM16.0002 27C14.0269 27 12.0935 26.4667 10.3869 25.4667L10.0136 25.24L5.45361 26.5467L6.76025 21.9867L6.54688 21.6133C5.53354 19.92 5.00024 17.9733 5.00024 16C5.00024 9.93333 9.93358 5 16.0002 5C22.0669 5 27.0002 9.93333 27.0002 16C27.0002 22.0667 22.0669 27 16.0002 27ZM22.6269 19.0133C22.7069 19.1467 22.7069 19.8133 22.4403 20.5867C22.1603 21.3733 20.8269 22.0933 20.2269 22.16C19.6269 22.2267 19.0669 22.44 16.2935 21.3467C12.9602 20.0133 10.8403 16.5733 10.6803 16.36C10.5203 16.1467 9.34692 14.5733 9.34692 12.9467C9.34692 11.32 10.1869 10.5333 10.4936 10.1867C10.8002 9.85333 11.1603 9.77334 11.3736 9.77334C11.6003 9.77334 11.8136 9.77333 12.0136 9.78666C12.2403 9.78666 12.5069 9.78666 12.7469 10.3467C13.0402 11 13.6669 12.6267 13.7469 12.7733C13.8269 12.9333 13.8803 13.1333 13.7736 13.3467C13.6536 13.56 13.6003 13.7067 13.4403 13.8933C13.2803 14.08 13.0936 14.32 12.9469 14.4667C12.7736 14.6267 12.6135 14.8 12.8002 15.1333C13.0002 15.4533 13.6535 16.5467 14.6269 17.4133C15.8802 18.5467 16.9336 18.8933 17.2669 19.0533C17.5869 19.2133 17.7869 19.1867 17.9736 18.9733C18.1736 18.76 18.8003 18.0133 19.0136 17.68C19.2269 17.36 19.4402 17.4133 19.7469 17.52C20.0536 17.6267 21.6536 18.44 21.9869 18.6C22.3069 18.7733 22.5336 18.8533 22.6136 18.9867L22.6269 19.0133Z" fill="#49D550"/>
</svg>
